<?xml version="1.0" encoding="UTF-8" standalone="no"?>
<svg width="180" height="80" xmlns="http://www.w3.org/2000/svg" xmlns:svg="http://www.w3.org/2000/svg">
 <g class="layer">
  <g id="g10" transform="matrix(1.3333333,0,0,-1.3333333,0,100) ">
   <g id="g12" transform="translate(-104.75708770751953,-3.947368860244751) scale(0.10000000149011612) ">
    <path fill="#ffffff" fill-rule="nonzero" d="m1601.811,612.78819l0,-247.324l141.38,0l0,37.731l-96.03,0l0,68.593l80.03,0l0,37.348l-80.03,0l0,65.926l92.98,0l1.53,37.726l-139.86,0zm194.73,-69.355l62.12,-182.539l-3.05,-10.289c-7.24,-24.391 -23.25,-29.727 -48.4,-33.156l7.24,-34.68c52.21,2.668 73.93,21.723 89.18,67.453l63.64,193.211l-45.73,1.523l-39.64,-139.093l-39.25,139.093l-46.11,-1.523zm388.32,-90.316c0,57.543 -29.72,92.984 -81.17,92.984c-51.06,0 -85.36,-36.203 -85.36,-91.461c0,-59.449 36.58,-91.844 88.03,-91.844c37.35,0 59.83,21.723 72.02,48.02l-32.39,14.859c-7.62,-16.387 -20.58,-26.293 -38.87,-26.293c-21.72,0 -39.63,8.766 -43.44,34.68l121.18,19.055zm-121.94,12.957c0,28.199 14.86,45.726 39.63,45.726c20.2,0 33.15,-11.43 35.44,-34.297l-75.07,-11.429zm177.58,-60.211c8,-23.25 30.1,-43.067 72.4,-43.067c37.73,0 70.12,18.676 70.12,57.164c0,62.118 -93.74,44.207 -93.74,73.168c0,11.434 9.9,16.387 25.15,16.387c15.24,0 27.44,-7.238 32.39,-19.816l33.92,17.531c-9.91,25.914 -35.82,38.871 -68.22,38.871c-42.68,0 -68.97,-20.961 -68.97,-53.352c0,-61.738 94.12,-47.636 94.12,-75.836c0,-11.816 -8.76,-17.531 -25.15,-17.531c-17.15,0 -30.86,7.242 -36.96,22.485l-35.06,-16.004" id="path14"/>
    <path fill="#ffffff" fill-rule="nonzero" d="m1516.601,738.01119l-123.09,40l-16.74,-51.539c0,0 5.78,2.438 7.56,2.992c5.88,2.348 12.58,2.731 19.07,0.621c14.88,-4.836 22.96,-20.918 17.9,-35.781c-4.88,-14.344 -20.46,-22.273 -34.92,-17.769c-0.12,0.035 -0.23,0.07 -0.34,0.109c-6.49,2.109 -11.69,6.355 -15.07,11.711c-1.11,1.492 -4.35,6.863 -4.35,6.863l-16.74,-51.543l50.43,-16.39c-0.65,-0.668 -4.01,-3.356 -6.69,-5.356c-4.88,-3.637 -8.96,-8.539 -10.91,-14.816c-4.5,-14.465 3.43,-30.051 17.76,-34.934c0.13,-0.039 0.26,-0.082 0.38,-0.121c6.91,-2.246 14.06,-1.672 20.2,1.094c6.97,3.136 12.65,9.093 15.2,16.941c1.99,6.125 1.45,12.336 -0.24,18.07c-1.08,3.649 -1.88,6.446 -2.24,8.161c-0.01,0.031 -0.02,0.062 -0.03,0.097l50.44,-16.394l39.99,123.121c2.02,6.191 -1.37,12.847 -7.57,14.863l0,0" id="path16"/>
    <path fill="none" stroke="#ffffff" stroke-width="41.3901" stroke-miterlimit="4" d="m1310.261,287.55019c121.64,0 220.25,98.61 220.25,220.25c0,121.641 -98.61,220.25 -220.25,220.25c-121.64,0 -220.25,-98.609 -220.25,-220.25c0,-121.64 98.61,-220.25 220.25,-220.25z" id="path18"/>
    <path fill="#ffffff" fill-rule="nonzero" d="m1301.381,404.22619l0,37.211c-4.81,-2.207 -10.07,-3.375 -15.42,-3.375c-5.02,0 -9.9,0.996 -14.5,2.957c-4.43,1.894 -8.4,4.601 -11.79,8.043c-7,7.098 -10.77,16.496 -10.64,26.465c0.14,9.644 3.99,18.734 10.86,25.593c6.87,6.86 15.96,10.704 25.6,10.825c0.16,0.004 0.32,0.004 0.47,0.004c5.35,0 10.61,-1.168 15.42,-3.375l0.03,36.898l-44.18,0c1.07,1.871 2.65,4.199 4.46,6.852c3.52,5.125 6.13,11.054 6.05,17.773c-0.19,15.148 -12.55,27.523 -27.69,27.731c-0.13,0.003 -0.27,0.003 -0.4,0.003c-15.52,0.004 -28.09,-12.578 -28.09,-28.093c0,-6.571 2.58,-12.371 6.03,-17.395c1.68,-2.441 3.41,-5 4.48,-6.871l-41.24,0c-6.51,0 -11.79,-5.281 -11.79,-11.797l0,-117.652c0,-6.52 5.28,-11.797 11.79,-11.797l120.55,0" id="path20"/>
    <path fill="none" stroke="#ffffff" stroke-width="5" stroke-miterlimit="10" d="m1301.381,404.22619l0,37.211c-4.81,-2.207 -10.07,-3.375 -15.42,-3.375c-5.02,0 -9.9,0.996 -14.5,2.957c-4.43,1.894 -8.4,4.601 -11.79,8.043c-7,7.098 -10.77,16.496 -10.64,26.465c0.14,9.644 3.99,18.734 10.86,25.593c6.87,6.86 15.96,10.704 25.6,10.825c0.16,0.004 0.32,0.004 0.47,0.004c5.35,0 10.61,-1.168 15.42,-3.375l0.03,36.898l-44.18,0c1.07,1.871 2.65,4.199 4.46,6.852c3.52,5.125 6.13,11.054 6.05,17.773c-0.19,15.148 -12.55,27.523 -27.69,27.731c-0.13,0.003 -0.27,0.003 -0.4,0.003c-15.52,0.004 -28.09,-12.578 -28.09,-28.093c0,-6.571 2.58,-12.371 6.03,-17.395c1.68,-2.441 3.41,-5 4.48,-6.871l-41.24,0c-6.51,0 -11.79,-5.281 -11.79,-11.797l0,-117.652c0,-6.52 5.28,-11.797 11.79,-11.797l120.55,0z" id="path22"/>
    <path fill="#ffffff" fill-rule="nonzero" d="m1414.431,536.87019c2.2,-4.804 3.37,-10.07 3.37,-15.417c0,-9.868 -3.84,-19.149 -10.82,-26.122c-6.97,-6.98 -16.25,-10.82 -26.11,-10.82c-0.18,0 -0.35,0 -0.53,0c-9.64,0.137 -18.73,3.992 -25.58,10.859c-6.86,6.872 -10.7,15.965 -10.83,25.61c-0.07,5.519 1.1,10.945 3.37,15.89l-37.08,0l0,-44.285c-1.56,0.895 -4.45,2.844 -7.11,4.676c-4.94,3.406 -10.69,5.84 -17.15,5.84c-0.12,0 -0.24,0 -0.36,-0.004c-15.14,-0.187 -27.51,-12.547 -27.72,-27.695c-0.08,-5.192 1.26,-10.063 3.65,-14.258c4.83,-8.5 13.96,-14.234 24.43,-14.234c6.46,0 12.08,2.632 17.14,5.835c3.12,1.973 5.56,3.786 7.12,4.68l0,-53.047l129.42,0c6.52,0 11.8,5.285 11.8,11.797l0,120.695l-37.01,0" id="path24"/>
    <path fill="none" stroke="#ffffff" stroke-width="5" stroke-miterlimit="10" d="m1414.431,536.87019c2.2,-4.804 3.37,-10.07 3.37,-15.417c0,-9.868 -3.84,-19.149 -10.82,-26.122c-6.97,-6.98 -16.25,-10.82 -26.11,-10.82c-0.18,0 -0.35,0 -0.53,0c-9.64,0.137 -18.73,3.992 -25.58,10.859c-6.86,6.872 -10.7,15.965 -10.83,25.61c-0.07,5.519 1.1,10.945 3.37,15.89l-37.08,0l0,-44.285c-1.56,0.895 -4.45,2.844 -7.11,4.676c-4.94,3.406 -10.69,5.84 -17.15,5.84c-0.12,0 -0.24,0 -0.36,-0.004c-15.14,-0.187 -27.51,-12.547 -27.72,-27.695c-0.08,-5.192 1.26,-10.063 3.65,-14.258c4.83,-8.5 13.96,-14.234 24.43,-14.234c6.46,0 12.08,2.632 17.14,5.835c3.12,1.973 5.56,3.786 7.12,4.68l0,-53.047l129.42,0c6.52,0 11.8,5.285 11.8,11.797l0,120.695l-37.01,0z" id="path26"/>
    <path fill="#ffffff" fill-rule="nonzero" d="m1071.791,254.73419c0,0 -12.32,-15.762 3.44,-28.074l28.38,-22.168c0,0 15.76,-12.317 28.07,3.445l69.13,88.484c0,0 12.32,15.762 -3.44,28.074l-28.38,22.172c0,0 -15.76,12.313 -28.07,-3.449l-69.13,-88.484" id="path28"/>
   </g>
  </g>
 </g>
</svg>